# Blender v2.72 (sub 0) OBJ File: 'Help.blend'
# www.blender.org
v -8.000000 -0.999999 -28.000000
v 8.000000 -0.999999 -28.000000
v 8.000000 -1.000001 8.000000
v -8.000000 1.000001 -28.000000
v -8.000000 -1.000001 8.000000
v 6.000000 1.000001 -28.000000
v -8.000000 0.999999 8.000000
v 6.000000 0.999999 8.000000
v -1.000000 3.000000 -1.000000
v -1.000000 1.000000 -1.000000
v -1.000000 1.000000 1.000000
v 1.000000 3.000000 -1.000000
v 1.000000 1.000000 -1.000000
v 1.000000 3.000000 1.000000
v 1.000000 1.000000 1.000000
v -1.000000 3.000000 1.000000
v 1.000000 3.000000 -3.000000
v 1.000000 1.000000 -3.000000
v 1.000000 1.000000 -1.000000
v 3.000000 3.000000 -3.000000
v 3.000000 1.000000 -3.000000
v 3.000000 3.000000 -1.000000
v 3.000000 1.000000 -1.000000
v 1.000000 3.000000 -1.000000
v 1.000000 3.000000 1.000000
v 1.000000 1.000000 1.000000
v 1.000000 1.000000 3.000000
v 3.000000 3.000000 1.000000
v 3.000000 1.000000 1.000000
v 3.000000 3.000000 3.000000
v 3.000000 1.000000 3.000000
v 1.000000 3.000000 3.000000
v -3.000000 3.000000 1.000000
v -3.000000 1.000000 1.000000
v -3.000000 1.000000 3.000000
v -1.000000 3.000000 1.000000
v -1.000000 1.000000 1.000000
v -1.000000 3.000000 3.000000
v -1.000000 1.000000 3.000000
v -3.000000 3.000000 3.000000
v -3.000000 3.000000 -3.000000
v -3.000000 1.000000 -3.000000
v -3.000000 1.000000 -1.000000
v -1.000000 3.000000 -3.000000
v -1.000000 1.000000 -3.000000
v -1.000000 3.000000 -1.000000
v -1.000000 1.000000 -1.000000
v -3.000000 3.000000 -1.000000
v 0.000000 5.000000 -0.000000
v 0.000000 5.000000 -2.000000
v 2.000000 5.000000 -2.000000
v 2.000000 5.000000 -0.000000
v 0.000000 7.000000 0.000000
v 0.000000 7.000000 -2.000000
v 2.000000 7.000000 -2.000000
v 2.000000 7.000000 0.000000
v 8.000000 5.000001 -28.000000
v 8.000000 4.999999 8.000000
v 6.000000 5.000001 -28.000000
v 6.000000 4.999999 8.000000
vt -1.000000 0.000000
vt -1.000000 -1.000000
vt 0.000000 -1.000000
vt 1.000000 0.000000
vt 1.000000 -1.000000
vt 0.000000 1.000000
vt -1.000000 1.000000
vt 0.000000 0.000000
vt -0.000002 -17.500000
vt -1.000002 -17.500000
vt -1.000000 0.500000
vt 0.500000 1.999998
vt 7.500000 1.999998
vt 8.500000 0.999998
vt -6.500000 0.000000
vt -6.500000 -1.000000
vt 1.500000 -1.000000
vt 0.500000 -17.500000
vt -6.500000 -17.500000
vt -6.500000 0.500000
vt 2.999998 -17.500000
vt 3.000000 0.500000
vt 8.500000 -17.500000
vt 8.500000 0.500000
vt 0.000000 -0.500000
vt -1.000000 -0.500000
vt 1.500000 0.000000
vt 0.500000 -1.000000
vt 0.000000 0.500000
vt 0.000000 1.499999
vt -1.000000 1.500000
vt -0.500000 0.000000
vt -0.500000 -1.000000
vt 0.500000 -0.500000
vt 1.500000 -0.500000
vt 1.500000 0.500000
vt -0.500000 -0.500000
vt -0.500000 0.499999
vt 0.500000 18.500000
vt 1.500000 18.500000
vt 1.500000 2.000000
vt 0.500000 0.999998
vt -0.500000 1.999998
vt -0.500000 3.999998
vt 0.999998 0.500000
vt 1.000000 18.500000
vt 3.000000 18.500000
vt 0.500000 0.000000
vt 0.500000 0.500000
vt 0.500000 3.999998
vn 0.000000 -0.000000 1.000000
vn 0.000000 0.000000 -1.000000
vn 0.000000 1.000000 0.000000
vn 0.000000 -1.000000 -0.000000
vn 1.000000 0.000000 0.000000
vn -1.000000 0.000000 0.000000
s off
f 48/1/1 43/2/1 47/3/1
f 12/4/2 13/5/2 10/3/2
f 44/3/3 41/2/3 48/1/3
f 20/3/3 17/2/3 24/1/3
f 20/4/2 21/5/2 18/3/2
f 26/3/4 29/5/4 31/4/4
f 28/3/3 25/2/3 32/1/3
f 46/6/5 47/7/5 45/1/5
f 25/3/6 26/2/6 27/1/6
f 36/8/5 38/6/5 39/7/5
f 36/4/2 37/5/2 34/3/2
f 4/9/6 1/10/6 5/11/6
f 12/3/3 9/2/3 16/1/3
f 9/3/6 10/2/6 11/1/6
f 40/1/1 35/2/1 39/3/1
f 36/3/3 33/2/3 40/1/3
f 44/4/2 45/5/2 42/3/2
f 4/12/2 6/13/2 2/14/2
f 42/3/4 45/5/4 47/4/4
f 34/3/4 37/5/4 39/4/4
f 18/3/4 21/5/4 23/4/4
f 33/3/6 34/2/6 35/1/6
f 17/3/6 18/2/6 19/1/6
f 28/4/2 29/5/2 26/3/2
f 7/15/1 5/16/1 3/17/1
f 41/3/6 42/2/6 43/1/6
f 22/6/5 23/7/5 21/1/5
f 24/1/1 19/2/1 23/3/1
f 6/18/3 4/19/3 7/20/3
f 10/3/4 13/5/4 15/4/4
f 2/9/5 57/21/5 58/22/5
f 32/1/1 27/2/1 31/3/1
f 1/18/4 2/23/4 3/24/4
f 16/1/1 11/2/1 15/3/1
f 28/8/5 30/6/5 31/7/5
f 14/6/5 15/7/5 13/1/5
f 54/25/6 50/26/6 49/11/6
f 55/27/2 51/17/2 50/28/2
f 55/29/5 56/30/5 52/31/5
f 53/32/1 49/33/1 52/28/1
f 50/34/4 51/35/4 52/36/4
f 55/34/3 54/37/3 53/38/3
f 60/39/3 58/40/3 57/36/3
f 3/17/1 58/41/1 60/12/1
f 2/42/2 6/43/2 59/44/2
f 6/45/6 8/46/6 60/47/6
f 46/8/1 48/1/1 47/3/1
f 9/8/2 12/4/2 10/3/2
f 46/8/3 44/3/3 48/1/3
f 22/8/3 20/3/3 24/1/3
f 17/8/2 20/4/2 18/3/2
f 27/8/4 26/3/4 31/4/4
f 30/8/3 28/3/3 32/1/3
f 44/8/5 46/6/5 45/1/5
f 32/8/6 25/3/6 27/1/6
f 37/1/5 36/8/5 39/7/5
f 33/8/2 36/4/2 34/3/2
f 7/29/6 4/9/6 5/11/6
f 14/8/3 12/3/3 16/1/3
f 16/8/6 9/3/6 11/1/6
f 38/8/1 40/1/1 39/3/1
f 38/8/3 36/3/3 40/1/3
f 41/8/2 44/4/2 42/3/2
f 1/42/2 4/12/2 2/14/2
f 43/8/4 42/3/4 47/4/4
f 35/8/4 34/3/4 39/4/4
f 19/8/4 18/3/4 23/4/4
f 40/8/6 33/3/6 35/1/6
f 24/8/6 17/3/6 19/1/6
f 25/8/2 28/4/2 26/3/2
f 8/48/1 7/15/1 3/17/1
f 48/8/6 41/3/6 43/1/6
f 20/8/5 22/6/5 21/1/5
f 22/8/1 24/1/1 23/3/1
f 8/49/3 6/18/3 7/20/3
f 11/8/4 10/3/4 15/4/4
f 3/29/5 2/9/5 58/22/5
f 30/8/1 32/1/1 31/3/1
f 5/49/4 1/18/4 3/24/4
f 14/8/1 16/1/1 15/3/1
f 29/1/5 28/8/5 31/7/5
f 12/8/5 14/6/5 13/1/5
f 53/29/6 54/25/6 49/11/6
f 54/48/2 55/27/2 50/28/2
f 51/11/5 55/29/5 52/31/5
f 56/48/1 53/32/1 52/28/1
f 49/49/4 50/34/4 52/36/4
f 56/49/3 55/34/3 53/38/3
f 59/49/3 60/39/3 57/36/3
f 8/48/1 3/17/1 60/12/1
f 57/50/2 2/42/2 59/44/2
f 59/22/6 6/45/6 60/47/6
